<?xml version="1.0" encoding="UTF-8"?>
<svg width="1e3mm" height="1e3mm" version="1.1" viewBox="0 0 1000 999.99999" xmlns="http://www.w3.org/2000/svg">
 <g transform="translate(244.04 735.31)">
  <path d="m-80.43-248.47v-126.21h311.38v252.43h-311.38zm286.18 0v-101.02h-260.99v202.04h260.99zm-231.28 42.532-9.0295-9.0512 54.907-54.614 54.907-54.614 54.55 54.512c30.003 29.981 54.55 54.65 54.55 54.819s-3.9426 4.3407-8.7614 9.2707l-8.7614 8.9637-45.908-45.873-45.908-45.874-45.758 45.757-45.758 45.757zm315.42-42.532v-126.21h311.38v252.43h-311.38zm286.18 0v-101.02h-260.99v202.04h260.99zm-231.27 42.55-8.9542-8.9635 54.866-54.672 54.866-54.672 54.55 54.516c30.003 29.984 54.55 54.732 54.55 54.997 0 0.26453-3.9584 4.4351-8.7965 9.2679l-8.7965 8.7869-45.784-45.783-45.784-45.783-45.881 45.634-45.881 45.634zm-514.57-17.656c-8.5843-1.424-16.977-9.3128-19.337-18.176-0.86647-3.2542-0.83311-9.8975 0.0671-13.354 2.0703-7.9484 8.4724-14.744 16.386-17.394 4.2686-1.4292 11.308-1.4398 15.759-0.0236 17.869 5.6862 23.301 28.708 9.8967 41.944-6.2001 6.1221-13.867 8.4801-22.771 7.0031zm851.62 0.20793c-8.069-1.0702-15.449-6.3527-19.005-13.604-4.8189-9.8259-3.1373-20.929 4.3759-28.894 12.038-12.761 33.32-9.3934 40.845 6.4621 4.7322 9.9712 2.8167 20.981-5.0125 28.81-5.7315 5.7316-13.222 8.284-21.204 7.2254z" stroke-width=".47538"/>
 </g>
</svg>
