<?xml version="1.0" encoding="UTF-8"?>
<svg width="962.24mm" height="400.93mm" version="1.1" viewBox="0 0 962.24011 400.92718" xmlns="http://www.w3.org/2000/svg">
 <g transform="translate(382 51.49)">
  <path d="m522.35 299.16c-14.328-2.0817-25.879-10.507-32.657-23.821-4.0464-7.9478-5.973-17.323-5.9706-29.055 4e-3 -17.358 4.3679-29.67 14.199-40.058 6.469-6.8354 13.495-10.977 21.601-12.734 3.5394-0.76713 10.629-1.0025 14.976-0.49721 9.9298 1.1544 16.886 4.2272 22.805 10.074 3.7402 3.6945 5.5748 6.295 7.9318 11.243 3.6085 7.5756 4.5862 12.894 4.8241 26.24l0.1776 9.966h-33.556-33.556v2.4073c0 5.4179 1.9606 13.077 4.6057 17.992 3.8119 7.0831 8.8574 11.304 15.749 13.177 2.2057 0.59918 3.7672 0.74845 7.8672 0.75203 10.331 9e-3 18.852-2.6252 26.061-8.0568 1.4306-1.0779 2.6364-1.9132 2.6796-1.8563 0.043 0.0569 1.6842 2.7933 3.647 6.0809 2.9277 4.9036 3.4919 6.0713 3.1413 6.5002-1.167 1.4273-6.5474 4.9461-10.647 6.9631-5.0149 2.4674-10.193 3.9958-15.886 4.6889-3.6793 0.44794-14.896 0.44479-17.992-5e-3zm28.977-67.298c-0.7779-12.806-7.2704-21.74-17.336-23.853-3.2158-0.67518-8.3082-0.67123-10.918 8e-3 -8.4901 2.2114-15.515 10.599-18.399 21.97-0.46522 1.834-0.84587 3.8698-0.84587 4.524v1.1895h47.731l-0.2331-3.8386zm-619.32 107.26c-3.8913-0.37532-9.2641-1.4563-14.029-2.8225-4.6216-1.3251-12.696-4.4792-12.913-5.0441-0.25346-0.6605 4.9578-23.677 5.3404-23.587 0.18747 0.0442 2.0701 0.72797 4.1835 1.5196 7.8798 2.9515 14.698 4.226 22.546 4.2148 7.3656-0.0106 11.956-1.5008 15.74-5.1107 3.7989-3.6236 5.239-7.4957 5.569-14.974l0.20938-4.745-2.4945 2.5294c-4.1515 4.2095-8.9484 6.9161-14.225 8.026-3.2305 0.67956-10.979 0.67733-14.888-4e-3 -10.974-1.9138-19.647-8.6183-25.245-19.516-3.1361-6.1054-4.704-11.165-5.9235-19.116-0.7673-5.0026-0.88505-20.278-0.19444-25.224 2.0858-14.937 6.5513-25.171 14.316-32.808 4.7551-4.6773 9.9753-7.4887 16.497-8.8849 4.085-0.87446 12.964-0.87067 16.116 7e-3 6.4043 1.783 12.177 5.9644 16.102 11.664 1.1647 1.6911 1.4449 1.926 1.6568 1.3887 0.20976-0.53178 2.0568-11.224 2.0568-11.906 0-0.11319 6.35-0.2058 14.111-0.2058h14.111v51.833c0 35.139-0.12252 52.714-0.3804 54.568-2.0131 14.473-10.269 25.887-23.558 32.568-9.2927 4.6723-22.471 6.8102-34.705 5.6302zm16.709-64.674c3.1016-0.65743 5.657-1.9961 7.9503-4.165l1.8812-1.7792v-43.15l-1.0766-1.464c-2.2059-2.9996-6.5401-5.431-10.878-6.1022-6.6496-1.029-12.26 1.5651-15.13 6.9957-1.4005 2.65-2.7707 7.0855-3.4946 11.313-0.83171 4.8565-0.8329 17.691-0.0021 22.217 2.1642 11.791 6.6061 16.58 15.412 16.618 1.6492 7e-3 4.0513-0.21028 5.3379-0.48299zm-113.46 24.964c-2.7281-0.3419-8.3219-1.6809-11.07-2.65-14.978-5.2811-25.989-18.233-29.725-34.967-0.92456-4.1408-1.3287-18.919-0.67378-24.636 2.1699-18.941 11.528-33.65 25.565-40.184 3.2514-1.5135 6.3977-2.4882 10.965-3.3971 4.4695-0.88935 16.646-0.88522 21.122 7e-3 13.454 2.6821 23.098 9.6595 28.855 20.876 4.3966 8.566 5.5747 15.434 5.5814 32.537l4e-3 9.2604h-29.436c-16.71 0-29.52 0.13508-29.629 0.31243-0.33621 0.544 1.1169 5.5208 2.291 7.8468 0.62976 1.2476 2.1324 3.2761 3.3969 4.586 4.1397 4.2879 8.7058 5.9541 16.304 5.9491 8.5423-6e-3 13.544-0.98683 22.368-4.3886 2.7406-1.0565 5.0053-1.8897 5.0328-1.8515 0.0274 0.0382 1.748 4.434 3.8235 9.7685l3.7737 9.6991-0.79739 0.64568c-1.4359 1.1627-5.6774 3.5049-8.7992 4.8588-6.1578 2.6708-13.931 4.7324-21.127 5.6034-2.7762 0.33603-15.429 0.42368-17.825 0.12348zm19.22-64.232c-4e-3 -0.53358-0.15385-2.373-0.33425-4.0877-0.86563-8.228-4.101-12.258-10.721-13.355-2.7927-0.46276-6.1519-0.0181-8.5185 1.1275-4.0996 1.9846-7.1123 7.2472-8.2591 14.427-0.19825 1.2412-0.27678 2.3922-0.17449 2.5576 0.10227 0.16549 6.4472 0.30089 14.1 0.30089h13.914l-6e-3 -0.97013zm174.81 63.969c-11.985-2.3042-21.007-10.323-24.044-21.371-0.91588-3.3323-0.92149-14.365-0.0088194-17.639 3.223-11.562 12.71-19.056 27.667-21.855 5.9572-1.1147 10.404-1.4287 20.236-1.4287h9.1348v-5.4309c0-6.1502-0.57852-8.8361-2.4638-11.439-2.1892-3.022-6.175-4.5162-11.212-4.203-6.0954 0.37903-8.9628 3.0666-9.7794 9.1664l-0.2243 1.6757h-30.988l-0.22197-0.88444c-0.3248-1.294 0.44217-7.1255 1.2434-9.4544 1.323-3.8453 3.2561-6.9716 6.2679-10.136 9.0066-9.4644 22.283-13.917 39.617-13.287 11.294 0.41038 20.212 3.259 27.585 8.8107 5.9906 4.5112 9.9552 10.776 11.773 18.602 0.54317 2.339 0.64248 5.7964 0.85605 29.81 0.26007 29.234 0.2843 29.633 2.276 37.49 0.48729 1.9224 1.4203 5.0288 2.0733 6.9031l1.1873 3.4078h-14.359c-7.8975 0-15.117-0.10384-16.043-0.23075-1.6683-0.22867-1.6928-0.25119-2.7108-2.4963-0.86226-1.9017-1.4193-3.4983-2.964-8.4953-0.084-0.27168-0.84966 0.38356-1.8551 1.5875-4.2594 5.1004-9.5427 8.6875-15.284 10.377-3.3037 0.97215-13.808 1.2803-17.758 0.52087zm23.091-22.95c2.8135-0.74873 5.9325-2.399 8.0417-4.2547l1.8521-1.6296v-16.526l-5.2035 6e-3c-12.546 0.0151-16.791 1.6189-19.41 7.3327-1.2294 2.6828-1.5148 7.0986-0.61161 9.4635 1.0541 2.7602 3.399 4.843 6.5277 5.7981 1.5088 0.46061 6.7858 0.34638 8.8035-0.19057zm209.04 23.213c-2.729-0.34201-8.3221-1.681-11.07-2.6504-16.028-5.6531-27.462-20.046-30.217-38.034-0.67882-4.4336-0.68115-17.892-4e-3 -22.979 2.4272-18.232 11.708-32.408 25.387-38.775 3.2514-1.5135 6.3977-2.4882 10.965-3.3971 4.4695-0.88935 16.646-0.88522 21.122 7e-3 13.454 2.6821 23.098 9.6595 28.855 20.876 4.3966 8.566 5.5747 15.434 5.5814 32.537l4e-3 9.2604h-29.436c-16.709 0-29.52 0.13508-29.629 0.31243-0.33623 0.544 1.1169 5.5208 2.291 7.8468 0.62978 1.2476 2.1324 3.2761 3.3969 4.586 4.1397 4.2879 8.7058 5.9541 16.304 5.9491 8.5423-6e-3 13.544-0.98683 22.368-4.3886 2.7406-1.0565 5.0054-1.8897 5.0328-1.8515 0.0275 0.0382 1.748 4.434 3.8235 9.7685l3.7737 9.6991-0.79738 0.64568c-1.4359 1.1627-5.6775 3.5049-8.7992 4.8588-6.1578 2.6708-13.931 4.7324-21.127 5.6034-2.7762 0.33603-15.429 0.42368-17.825 0.12348zm19.064-66.525c-0.43374-5.9528-1.7007-9.555-4.2613-12.116-3.366-3.366-10.352-4.2324-15.201-1.8852-4.0534 1.9622-7.0726 7.257-8.2144 14.405-0.19823 1.2412-0.27675 2.3922-0.17448 2.5576s6.464 0.30089 14.137 0.30089h13.951zm-652.48 13.317v-51.682h30.273l0.20348 1.6757c0.11191 0.92164 0.38298 3.8982 0.60237 6.6146s0.44492 4.9897 0.50118 5.0519c0.0562 0.0622 0.59883-0.60872 1.2057-1.4908 1.5352-2.2314 5.3211-5.9458 7.7159-7.5702 6.6264-4.4948 13.37-6.3243 21.909-5.944 11.353 0.50571 19.39 5.1871 23.977 13.967l1.3596 2.6023 1.1311-1.644c4.3606-6.3379 10.274-11.024 16.704-13.236 5.7223-1.9688 14.979-2.3013 20.889-0.75034 9.908 2.6 16.916 9.4874 20.388 20.037 2.8111 8.5418 3.05 12.643 3.0622 52.566l0.01 31.485h-32.456v-32.959c0-21.148-0.13309-33.916-0.3714-35.629-0.75986-5.4632-2.2662-8.2983-5.3426-10.055-5.4414-3.1077-13.963-1.8334-19.12 2.8592l-1.676 1.5251 0.0365 37.13 0.0365 37.13h-32.083l-0.13537-34.131c-0.11867-29.917-0.20585-34.424-0.70609-36.504-1.6717-6.9512-4.8969-9.5462-11.9-9.5748-4.9781-0.0203-9.1257 1.5447-12.363 4.6648l-1.7484 1.6852v73.86h-32.103zm484.01 0v-51.682h15.169c13.016 0 15.169 0.0726 15.169 0.51152 0 0.84625 1.0726 13.045 1.1779 13.396 0.0537 0.17923 0.82476-0.61452 1.7134-1.7639 1.9867-2.5694 6.2361-6.6838 8.4824-8.2127 2.5886-1.762 7.2104-3.8485 10.322-4.6601 4.0269-1.0503 10.663-1.2871 14.974-0.53448 14.178 2.475 21.96 11.174 24.959 27.898 0.49353 2.7522 0.58773 8.0719 0.70753 39.952l0.13818 36.777h-32.107l-0.11973-34.484c-0.12957-37.312-0.0471-35.687-2.0177-39.758-2.2161-4.5779-9.3173-7.1083-16.06-5.7226-3.3538 0.68923-6.4301 2.1462-8.7312 4.1352l-1.6757 1.4484v74.381h-32.103zm221.54-17.82v-69.502l12.046 0.0928 12.046 0.0928 21.764 55.473c11.97 30.51 21.956 55.895 22.191 56.41 0.23473 0.51518 0.55135 0.79349 0.70354 0.61845 0.15222-0.17504 10.185-25.599 22.294-56.498l22.018-56.18h24.169v138.99h-19.05l0.0176-27.076c0.0148-22.457 0.18694-31.92 1.0099-55.474 0.54572-15.619 0.89133-28.513 0.76804-28.654-0.12334-0.14023-10.33 24.784-22.683 55.386l-22.458 55.641-6.2962 0.0959-6.2962 0.0958-22.356-55.482c-12.296-30.515-22.411-55.548-22.478-55.629-0.0675-0.0808-0.19226-0.0774-0.27738 8e-3 -0.0851 0.0851 0.22895 11.74 0.6979 25.9 0.68763 20.763 0.85411 31.497 0.86031 55.467l8e-3 29.722h-18.697zm-624.06-176.21v-93.662h231.07v187.32h-231.07zm212.37 0v-74.965h-193.67v149.93h193.67zm-171.63 31.562-6.7007-6.7169 40.746-40.529 40.746-40.529 40.481 40.453c22.265 22.249 40.481 40.555 40.481 40.68 0 0.12531-2.9258 3.2212-6.5018 6.8797l-6.5018 6.6519-34.068-34.042-34.068-34.042-33.957 33.956-33.957 33.956zm234.07-31.562v-93.662h231.07v187.32h-231.07zm212.37 0v-74.965h-193.67v149.93h193.67zm-171.62 31.576-6.6449-6.6518 40.716-40.571 40.716-40.571 40.481 40.456c22.265 22.251 40.481 40.617 40.481 40.813 0 0.19631-2.9375 3.2912-6.5278 6.8776l-6.5278 6.5207-33.976-33.975-33.976-33.975-34.048 33.864-34.048 33.864zm-381.86-13.103c-6.3703-1.0567-12.599-6.911-14.35-13.488-0.64301-2.4149-0.61825-7.3448 0.0498-9.9095 1.5364-5.8984 6.2873-10.942 12.16-12.908 3.1677-1.0606 8.3918-1.0684 11.695-0.01746 13.26 4.2197 17.292 21.304 7.3442 31.126-4.601 4.5431-10.291 6.293-16.898 5.1969zm631.98 0.1543c-5.9879-0.79418-11.464-4.7143-14.103-10.095-3.5761-7.2917-2.3282-15.531 3.2473-21.442 8.933-9.4695 24.727-6.9707 30.311 4.7955 3.5117 7.3996 2.0902 15.57-3.7197 21.38-4.2533 4.2534-9.8119 6.1475-15.735 5.3619z" stroke-width=".35278"/>
 </g>
</svg>
