<?xml version="1.0" encoding="UTF-8" standalone="no"?>
<svg
   xmlns:dc="http://purl.org/dc/elements/1.1/"
   xmlns:cc="http://creativecommons.org/ns#"
   xmlns:rdf="http://www.w3.org/1999/02/22-rdf-syntax-ns#"
   xmlns:svg="http://www.w3.org/2000/svg"
   xmlns="http://www.w3.org/2000/svg"
   id="svg8"
   version="1.1"
   viewBox="0 0 779.61877 306.01459"
   height="306.01459mm"
   width="779.61877mm">
  <title
     id="title3697">Megane Life</title>
  <defs
     id="defs2" />
  <metadata
     id="metadata5">
    <rdf:RDF>
      <cc:Work
         rdf:about="">
        <dc:format>image/svg+xml</dc:format>
        <dc:type
           rdf:resource="http://purl.org/dc/dcmitype/StillImage" />
        <dc:title>Megane Life</dc:title>
      </cc:Work>
    </rdf:RDF>
  </metadata>
  <g
     transform="translate(280.19629,-7.165329)"
     id="layer1">
    <g
       id="g3691">
      <path
         id="path3695"
         d="M -270.19629,160.17262 V 17.165329 H 109.6131 489.42248 V 160.17262 303.17992 H 109.6131 -270.19629 Z"
         style="fill:#fdfdfd;fill-opacity:0;stroke-width:0.26458335" />
      <path
         id="path3693"
         d="m -35.113992,303.01252 c -2.47936,-0.27147 -7.114014,-1.20454 -10.219344,-2.05746 -3.837019,-1.05386 -10.18831,-3.48929 -10.376141,-3.97877 -0.152895,-0.39844 3.492466,-17.11193 3.8051,-17.44586 0.124553,-0.13304 1.509792,0.23493 3.213,0.85349 6.265672,2.2755 9.507701,2.92198 15.694052,3.12952 4.937029,0.1656 7.068005,-0.17195 10.062173,-1.59388 4.707475,-2.23555 7.268035,-7.09235 7.268035,-13.78578 0,-1.38858 -0.07482,-2.5247 -0.166264,-2.5247 -0.09145,0 -0.970259,0.75845 -1.952919,1.68544 -3.121874,2.94502 -5.757947,4.44181 -9.654775,5.48209 -2.935952,0.78377 -8.708049,0.80535 -12.306655,0.046 -8.70163,-1.83614 -15.017134,-7.11782 -19.179723,-16.04012 -2.987591,-6.40374 -4.210635,-13.03869 -4.201163,-22.79112 0.008,-8.246 0.733364,-13.57364 2.643465,-19.41586 4.547079,-13.90766 14.128073,-21.46227 27.219112,-21.46227 7.130352,0 13.2246,3.05713 17.327936,8.69241 0.651322,0.89449 1.317038,1.62634 1.479368,1.62634 0.175635,0 0.584401,-1.73734 1.009504,-4.29061 0.392896,-2.35984 0.858274,-4.38207 1.034174,-4.49386 0.175898,-0.1118 4.8697679,-0.20508 10.4308149,-0.20731 9.8494323,-0.004 10.1183548,0.01 10.394818,0.52623 0.1995487,0.37289 0.2556669,12.09358 0.1890712,39.48906 C 8.5130751,270.06554 8.4656886,273.6076 8.04852,275.66324 6.6250352,282.6778 4.0056072,287.72623 -0.60039186,292.33223 -7.542974,299.2748 -17.021,302.81186 -29.293159,303.0399 c -2.619375,0.0487 -5.23875,0.0364 -5.820833,-0.0274 z m 12.070821,-48.63192 c 2.301028,-0.48773 4.616625,-1.68034 6.143059,-3.16386 l 1.232995,-1.19833 v -16.24205 -16.24205 l -0.759862,-1.04896 c -1.70674,-2.35608 -4.942488,-4.1226 -8.368263,-4.56855 -7.373438,-0.95984 -11.519794,2.85275 -13.51257,12.42484 -0.568775,2.73204 -0.809408,12.79669 -0.391835,16.38855 0.359357,3.09107 1.285889,6.54701 2.282537,8.5138 1.328745,2.62215 3.757348,4.60822 6.395268,5.22993 1.542428,0.36352 5.044326,0.3167 6.978671,-0.0933 z m -83.365449,18.88916 c -9.54241,-0.9156 -16.82377,-4.28412 -22.8644,-10.5776 -5.09792,-5.31131 -8.18863,-11.40476 -9.59212,-18.9112 -0.68939,-3.6872 -0.69671,-15.88367 -0.0119,-19.84375 2.67158,-15.44908 11.45442,-26.2776 23.92513,-29.49775 6.72222,-1.73579 15.229831,-1.78514 21.635851,-0.1255 5.699538,1.4766 9.584566,3.71259 13.75206,7.91487 4.231958,4.26727 6.525028,8.3915 8.060987,14.4982 1.107014,4.40129 1.37359,7.80098 1.281112,16.3383 l -0.08168,7.54063 -21.960417,0.13229 -21.960423,0.13229 -0.0883,0.62418 c -0.14819,1.04721 1.20077,4.83577 2.33821,6.56681 2.18519,3.32564 5.37221,5.50501 9.2595,6.33192 1.55769,0.33135 2.923076,0.39083 6.350001,0.2766 6.293914,-0.2098 9.009833,-0.78574 15.37774,-3.261 1.714939,-0.66661 3.276193,-1.15134 3.469458,-1.07718 0.193262,0.0742 1.588156,3.32492 3.09976,7.2239 l 2.748373,7.08905 -0.904436,0.7609 c -2.520979,2.12087 -11.347781,5.63585 -17.04402,6.78721 -5.346761,1.08072 -12.181526,1.51906 -16.790456,1.07683 z m 12.49084,-50.25271 c -0.179369,-6.78551 -2.803358,-10.3821 -8.1243,-11.13563 -4.86408,-0.68884 -8.63299,1.31793 -10.73091,5.71372 -1.22265,2.56184 -2.23067,7.3267 -1.66884,7.88853 0.0987,0.0987 4.7719,0.14831 10.38489,0.11025 l 10.205446,-0.0692 z m 133.716777,50.25538 c -6.197627,-0.70095 -11.231827,-3.08621 -15.149275,-7.17791 -4.072996,-4.25419 -5.921004,-9.24919 -5.921004,-16.00394 0,-6.74039 1.942359,-11.59125 6.31354,-15.76744 6.348598,-6.06544 15.5965,-8.38668 33.461961,-8.39903 l 3.659876,-0.003 -0.088,-4.56407 c -0.08467,-4.39149 -0.117131,-4.62717 -0.858652,-6.23311 -1.534901,-3.32422 -3.987642,-4.67283 -8.489765,-4.66799 -2.198291,0.002 -2.880413,0.10756 -4.032674,0.62189 -2.420302,1.08033 -3.629316,2.87774 -4.004786,5.95384 l -0.164624,1.34893 -11.580998,0.0689 -11.581024,0.0689 -0.245057,-0.64457 c -0.150707,-0.39639 -0.149331,-1.5701 0.0037,-3.04829 0.518821,-5.01457 2.556801,-8.99599 6.517217,-12.73205 5.014198,-4.73014 11.355917,-7.46743 19.928973,-8.60198 4.46733,-0.59121 12.184195,-0.38899 16.007292,0.41945 11.769037,2.48874 19.401393,8.98728 22.036061,18.76256 l 0.68244,2.53202 0.187087,20.24062 c 0.153061,16.55719 0.264345,20.74057 0.611584,22.98781 0.549963,3.55922 1.230233,6.39345 2.41173,10.04822 0.524934,1.62378 0.881539,3.07026 0.792454,3.2144 -0.20791,0.33643 -22.336311,0.35696 -23.218538,0.0215 -0.487415,-0.18532 -0.886195,-0.87704 -1.737016,-3.01315 -0.607377,-1.52493 -1.104344,-2.90879 -1.104344,-3.07525 0,-0.16645 -0.17616,-0.72423 -0.391451,-1.23951 l -0.391451,-0.93686 -2.292774,2.40932 c -3.659822,3.84583 -7.4549,6.06846 -11.975042,7.01328 -2.36429,0.49419 -6.847311,0.68334 -9.387337,0.39606 z m 15.007167,-17.6075 c 2.10828,-0.54357 4.401953,-1.774 6.021732,-3.23031 l 1.292489,-1.16207 v -6.08222 -6.08221 l -6.151562,0.10237 c -7.104645,0.11824 -7.83082,0.2887 -10.124732,2.37668 -2.044753,1.86118 -2.886445,3.88195 -2.897478,6.95629 -0.0077,2.14359 0.06837,2.52 0.761762,3.77146 1.418061,2.55933 3.693954,3.73682 7.261331,3.75679 1.215919,0.007 2.942325,-0.17624 3.836458,-0.40678 z m 158.401896,17.60483 c -8.98856,-0.86246 -15.99618,-3.90657 -21.74669,-9.44677 -5.69947,-5.49105 -9.09884,-11.84012 -10.73073,-20.04203 -0.67271,-3.38099 -0.66813,-15.9535 0.007,-19.84375 2.68452,-15.46378 11.45604,-26.27756 23.92691,-29.49775 6.72221,-1.73579 15.22984,-1.78514 21.63585,-0.1255 5.69955,1.4766 9.58456,3.71259 13.75206,7.91487 4.23196,4.26727 6.52502,8.3915 8.06098,14.4982 1.10702,4.40129 1.37359,7.80098 1.28112,16.3383 l -0.0817,7.54063 -21.96042,0.13229 -21.96042,0.13229 -0.0883,0.62418 c -0.14822,1.04721 1.20076,4.83577 2.33817,6.56681 2.18522,3.32564 5.37224,5.50501 9.25952,6.33192 1.55768,0.33135 2.92306,0.39083 6.35,0.2766 6.29391,-0.2098 9.00983,-0.78574 15.37774,-3.261 1.71493,-0.66661 3.27621,-1.15134 3.46946,-1.07718 0.19325,0.0742 1.58816,3.32492 3.09975,7.2239 l 2.74839,7.08905 -0.90446,0.7609 c -2.52097,2.12087 -11.34776,5.63585 -17.044,6.78721 -5.34676,1.08072 -12.18153,1.51906 -16.79046,1.07683 z m 12.49084,-50.25271 c -0.17938,-6.78551 -2.80336,-10.3821 -8.12432,-11.13563 -4.86407,-0.68884 -8.63298,1.31793 -10.73089,5.71372 -1.22267,2.56184 -2.23068,7.3267 -1.66886,7.88853 0.0987,0.0987 4.77192,0.14831 10.3849,0.11025 l 10.20545,-0.0692 z m 230.13467,50.25964 c -8.33641,-0.86806 -14.97319,-3.85758 -20.20398,-9.10083 -5.37366,-5.38647 -8.82465,-12.27566 -10.26795,-20.49792 -0.694,-3.95354 -0.95245,-12.16743 -0.52125,-16.56573 0.96223,-9.81525 4.2864,-17.43497 10.39264,-23.8222 4.19934,-4.39259 8.23225,-7.05854 13.12093,-8.67357 3.34835,-1.10616 5.93876,-1.50319 9.80763,-1.50319 17.72126,0 28.68935,10.11343 30.98231,28.56806 0.15322,1.23311 0.27858,5.07227 0.27858,8.53147 v 6.28945 l -25.06927,0.0675 -25.06927,0.0675 -0.0815,1.43405 c -0.11393,2.00424 0.64641,6.55699 1.56403,9.36509 2.48955,7.61827 7.48094,12.71538 14.01255,14.30933 2.31098,0.56397 8.85531,0.5717 12.05196,0.0143 4.69648,-0.81899 9.31137,-2.77524 12.91709,-5.47553 0.96237,-0.7207 1.89568,-1.25204 2.07407,-1.18075 0.4442,0.17751 5.22102,8.14574 5.21999,8.70748 0,0.57601 -2.58347,2.66881 -5.22621,4.23534 -2.60784,1.54586 -6.48941,3.19525 -9.14763,3.88709 -4.63026,1.2051 -12.29074,1.81628 -16.83467,1.34312 z m 19.47529,-48.29412 c 0.27403,-0.71409 -0.41492,-6.60133 -0.99359,-8.49049 -2.42882,-7.92938 -8.2093,-12.27777 -16.3009,-12.26242 -6.65765,0.0126 -12.24182,4.00336 -15.66071,11.19191 -1.50233,3.1588 -2.96267,8.56937 -2.58122,9.56344 0.13861,0.36118 2.15482,0.40741 17.76775,0.40741 15.6583,0 17.62884,-0.0455 17.76867,-0.40985 z m -738.57307,46.65901 c -0.46146,-0.46146 -0.46146,-76.42645 0,-76.88791 0.46824,-0.46824 21.9958,-0.45551 22.37448,0.0132 0.14696,0.1819 0.41439,2.23572 0.5943,4.56406 0.17991,2.32833 0.42802,4.34303 0.55136,4.4771 0.13148,0.1429 0.46975,-0.076 0.81758,-0.52917 1.2684,-1.65243 4.12559,-4.45615 5.63958,-5.53404 2.3357,-1.66292 5.11536,-2.97113 8.01607,-3.77265 2.32775,-0.64321 2.99922,-0.70988 7.19747,-0.7146 5.48984,-0.006 6.95522,0.29449 11.05553,2.26828 2.28279,1.09887 3.05002,1.63969 4.7625,3.35704 1.37463,1.37854 2.43021,2.75564 3.23197,4.2164 0.65484,1.19309 1.26947,2.17274 1.36584,2.17701 0.0964,0.004 0.74245,-0.78716 1.43573,-1.75871 3.42893,-4.80522 8.17852,-8.1081 13.86731,-9.64339 1.9581,-0.52845 2.86452,-0.60621 7.01133,-0.60146 4.43144,0.005 4.92712,0.0559 7.13069,0.73094 4.67254,1.43143 8.73739,4.22702 11.3794,7.82615 2.26004,3.0788 3.98758,7.61946 4.98841,13.11152 0.5704,3.1301 0.57858,3.55475 0.57858,30.0302 v 26.85521 l -11.7435,0.0689 c -8.45029,0.0496 -11.84479,-0.0151 -12.10469,-0.23084 -0.30039,-0.2493 -0.36274,-4.49176 -0.37042,-25.20434 -0.01,-26.33464 -0.0545,-27.4181 -1.24353,-30.0941 -1.13114,-2.54578 -3.1035,-3.95907 -6.22,-4.45693 -2.08005,-0.33229 -5.04018,-0.007 -7.16366,0.78769 -1.43701,0.53766 -4.37886,2.4884 -4.84732,3.21427 -0.12525,0.19405 -0.28724,12.85438 -0.36,28.13407 l -0.1323,27.78125 h -11.90625 -11.90625 l -0.13538,-25.66458 c -0.12321,-23.35584 -0.17734,-25.8313 -0.60174,-27.5178 -0.6569,-2.61048 -1.79593,-4.48531 -3.30731,-5.4438 -1.67248,-1.06065 -2.94629,-1.37371 -5.61286,-1.37945 -3.61851,-0.008 -6.69676,1.15033 -9.19996,3.46127 l -1.11879,1.03287 v 27.50439 c 0,21.03953 -0.0746,27.57902 -0.3175,27.82189 -0.45673,0.45674 -23.24993,0.45674 -23.70667,0 z m 363.008346,0 c -0.461459,-0.46146 -0.461459,-76.42645 0,-76.88791 0.236697,-0.23671 3.100014,-0.3175 11.251354,-0.3175 h 10.93383 l 0.22177,0.59531 c 0.12197,0.32742 0.37314,2.53294 0.55817,4.90114 0.18502,2.36821 0.46114,4.38295 0.61364,4.47719 0.15251,0.0943 0.58259,-0.23603 0.95573,-0.73395 2.48259,-3.31257 6.04536,-6.28489 9.67613,-8.07251 3.94092,-1.94033 5.82774,-2.33001 11.24479,-2.32239 5.4764,0.008 7.39913,0.41154 11.32441,2.37852 5.59903,2.8057 9.32474,7.85247 11.19476,15.16422 1.32059,5.16346 1.36234,6.117 1.485,33.92736 0.0837,18.96891 0.0341,26.25696 -0.18129,26.65949 -0.29499,0.55116 -0.35632,0.55362 -12.12583,0.48511 l -11.82934,-0.0689 -0.13811,-25.92916 c -0.12843,-24.1089 -0.17179,-26.03133 -0.61793,-27.38438 -1.3552,-4.11021 -3.75735,-6.04626 -8.20082,-6.60964 -4.4895,-0.56922 -8.38967,0.59828 -11.34991,3.39755 l -0.99219,0.93823 v 27.34808 c 0,18.34574 -0.0902,27.51653 -0.27389,27.85984 -0.26437,0.49401 -0.67585,0.51177 -11.85334,0.51177 -8.65346,0 -11.659655,-0.0802 -11.896934,-0.3175 z m 166.158334,0 c -0.46198,-0.46199 -0.46198,-103.14883 0,-103.61083 0.48549,-0.48549 13.26722,-0.44862 13.67227,0.0394 0.21553,0.25969 0.31446,12.92885 0.36314,46.50052 l 0.0669,46.14358 24.47396,0.13229 24.47395,0.1323 0.072,5.12524 c 0.0499,3.55658 -0.0206,5.23692 -0.23082,5.49011 -0.41802,0.50368 -62.38836,0.55034 -62.89136,0.0473 z m 77.52292,0 c -0.46146,-0.46146 -0.46146,-76.42645 0,-76.88791 0.45149,-0.45148 13.20102,-0.45148 13.6525,0 0.46146,0.46146 0.46146,76.42645 0,76.88791 -0.22973,0.22974 -2.11666,0.3175 -6.82625,0.3175 -4.70958,0 -6.59651,-0.0878 -6.82625,-0.3175 z m 41.49837,-0.18983 c -0.18775,-0.35077 -0.27628,-11.07717 -0.27628,-33.46917 v -32.95296 l -5.88698,-0.0712 -5.88698,-0.0712 v -5.15938 -5.15937 l 5.84523,-0.0711 5.8452,-0.0711 0.16383,-6.80807 c 0.20635,-8.57502 0.64029,-11.32381 2.49282,-15.79026 1.45561,-3.50948 4.35989,-6.97519 7.66964,-9.15224 5.64285,-3.7117 14.10838,-4.72205 22.8963,-2.73267 1.52937,0.34622 1.78652,0.48677 1.78991,0.9784 0.008,1.17152 -1.40883,9.58227 -1.66997,9.91271 -0.14896,0.18853 -0.44136,0.27735 -0.64977,0.19738 -0.20838,-0.08 -1.73312,-0.26412 -3.38833,-0.40922 -5.33506,-0.4677 -8.74467,0.39271 -11.17092,2.81897 -2.9708,2.97078 -3.81233,6.42394 -3.70173,15.18995 l 0.0715,5.67265 7.65077,0.0703 c 5.17999,0.0476 7.76661,0.16638 8.00936,0.36786 0.28313,0.23497 0.34346,1.3335 0.2867,5.22139 l -0.0718,4.92381 -7.9375,0.13229 -7.9375,0.13229 -0.13229,33.3375 -0.13229,33.3375 -6.80133,0.0706 c -6.51201,0.0676 -6.8131,0.0486 -7.0776,-0.44563 z M 343.42539,174.5395 c -0.23008,-0.23008 -0.3175,-2.14607 -0.3175,-6.95854 0,-4.81248 0.0874,-6.72847 0.3175,-6.95854 0.45149,-0.45148 13.20102,-0.45148 13.6525,0 0.23008,0.23007 0.3175,2.14606 0.3175,6.95854 0,4.81247 -0.0874,6.72846 -0.3175,6.95854 -0.22973,0.22973 -2.11666,0.3175 -6.82625,0.3175 -4.70958,0 -6.59651,-0.0878 -6.82625,-0.3175 z M -209.07754,87.544497 V 17.165329 h 86.65105 86.65104 v 70.379168 70.379173 h -86.65104 -86.65105 z m 159.146881,0.132292 V 31.585121 h -72.495831 -72.49584 l -0.0678,55.827085 c -0.0373,30.704894 -0.0112,55.976124 0.058,56.158294 0.10045,0.26433 14.75219,0.31775 72.56367,0.26458 l 72.437811,-0.0666 z M -178.45477,111.42046 c -2.58148,-2.58447 -4.6936,-4.88429 -4.6936,-5.11072 0,-0.41442 60.34871,-60.56941 60.76447,-60.56941 0.12257,0 13.85239,13.62992 30.510701,30.288712 l 30.287847,30.288708 -1.047093,1.13056 c -3.328459,3.59377 -8.515158,8.67119 -8.857819,8.67119 -0.219882,0 -11.799634,-11.39939 -25.732783,-25.33197 L -122.55605,65.455561 -147.89314,90.78753 c -13.9354,13.93258 -25.45655,25.33197 -25.60256,25.33197 -0.14601,0 -2.37759,-2.11457 -4.95907,-4.69904 z M -2.9671163,87.544497 V 17.165329 H 83.683928 170.33497 V 87.544497 157.92367 H 83.683928 -2.9671163 Z M 156.17976,87.676789 V 31.585121 H 83.683928 11.188092 l -0.06784,55.827085 c -0.03731,30.704894 -0.01111,55.976124 0.05802,56.158294 0.100463,0.26433 14.752188,0.31775 72.563675,0.26458 l 72.437813,-0.0666 z M 27.655654,111.42046 c -2.581487,-2.58447 -4.693603,-4.8577 -4.693603,-5.05161 0,-0.33954 60.111668,-60.393443 60.653614,-60.595339 0.292418,-0.108929 60.790135,60.270819 60.790135,60.671579 0,0.4254 -9.3504,9.67441 -9.78048,9.67441 -0.22386,0 -11.71749,-11.31094 -25.54139,-25.135419 C 95.260031,77.159601 83.815373,65.848663 83.651384,65.848663 c -0.164015,0 -11.671539,11.310938 -25.572297,25.135418 C 44.178301,104.80856 32.702422,116.1195 32.577115,116.1195 c -0.125333,0 -2.339975,-2.11457 -4.921461,-4.69904 z m -286.934534,-9.98907 c -4.7299,-1.02761 -8.99263,-5.159336 -10.26848,-9.952914 -0.51027,-1.917131 -0.49083,-5.85665 0.0378,-7.656269 2.07906,-7.078192 9.17696,-11.415703 16.24664,-9.928289 5.89386,1.240031 10.3271,5.8893 11.16683,11.710985 1.42495,9.878894 -7.35132,17.962437 -17.18275,15.826487 z m 473.79927,0.1314 c -4.17626,-0.72594 -8.04982,-3.660149 -10.02525,-7.594077 -1.92987,-3.843208 -1.76919,-9.54514 0.37206,-13.203592 4.80272,-8.205751 15.60171,-9.616515 22.2209,-2.902903 2.7727,2.812256 4.10104,5.991225 4.10104,9.814571 0,3.819768 -1.32726,6.998131 -4.10104,9.820757 -3.41982,3.480024 -7.79423,4.895004 -12.56771,4.065244 z"
         style="fill:#ffffff;stroke-width:0.26458335" />
    </g>
  </g>
</svg>
