<?xml version="1.0" encoding="utf-8"?>
<!-- Generator: Adobe Illustrator 18.1.1, SVG Export Plug-In . SVG Version: 6.00 Build 0)  -->
<svg version="1.1" id="Layer_1" xmlns="http://www.w3.org/2000/svg" xmlns:xlink="http://www.w3.org/1999/xlink" x="0px" y="0px"
	 width="300px" height="95.7px" viewBox="0 0 300 95.7" enable-background="new 0 0 300 95.7" xml:space="preserve">
<g>
	<g>
		<path fill="#21C7ED" d="M52.7,37.7c-10.4,0-18.8-8.5-18.8-18.8S42.3,0,52.7,0s18.8,8.5,18.8,18.8S63,37.7,52.7,37.7z M52.7,5.4
			c-7.4,0-13.4,6-13.4,13.4s6,13.4,13.4,13.4s13.4-6,13.4-13.4S60.1,5.4,52.7,5.4z"/>
	</g>
	<path fill="#FFFFFF" d="M0.8,31.9c0.5-0.7,0.9-1.5,1.4-2.1c0.5-0.7,1.2-0.9,1.8-0.4c0.3,0.3,4.3,3.6,8.4,3.6c3.6,0,5.9-2.2,5.9-4.9
		c0-3.1-2.7-5.1-7.9-7.3c-5.3-2.2-9.5-5-9.5-11.1C0.8,5.6,3.9,0,12.3,0c5.2,0,9.2,2.7,9.7,3.1c0.4,0.3,0.8,1,0.3,1.8
		c-0.4,0.6-0.9,1.4-1.3,2c-0.4,0.7-1.1,1-1.8,0.5c-0.4-0.2-4-2.6-7.1-2.6c-4.4,0-5.9,2.8-5.9,4.7c0,3,2.3,4.8,6.6,6.6
		C18.9,18.5,24,21.4,24,27.8c0,5.4-4.9,9.9-11.7,9.9C6,37.7,2,34.3,1.1,33.6C0.6,33.1,0.3,32.8,0.8,31.9z"/>
	<path fill="#FFFFFF" d="M100.4,0c5.3,0,9.1,1.8,12.7,4.9c0.5,0.4,0.5,1,0.1,1.5l-2.3,2.4c-0.4,0.5-0.8,0.5-1.3,0
		c-2.5-2.1-5.8-3.5-9.1-3.5c-7.5,0-13.1,6.3-13.1,13.6s5.7,13.6,13.2,13.6c3.8,0,6.5-1.5,9-3.5c0.5-0.4,0.9-0.3,1.3-0.1l2.4,2.4
		c0.4,0.4,0.3,1-0.1,1.4c-3.6,3.5-8.1,5.1-12.7,5.1c-10.5,0-18.9-8.3-18.9-18.8S90,0,100.4,0z"/>
	<path fill="#FFFFFF" d="M125.9,1.5c0-0.5,0.5-1,1-1h3.5c0.5,0,1,0.5,1,1v34.7c0,0.5-0.5,1-1,1h-3.5c-0.5,0-1-0.5-1-1V1.5z"/>
	<path fill="#FFFFFF" d="M141.8,35.8l16.1-35.2c0.2-0.3,0.6-0.6,0.9-0.6h0.5c0.3,0,0.7,0.3,0.9,0.6l16,35.2c0.3,0.7-0.1,1.4-0.9,1.4
		h-3.3c-0.6,0-1-0.3-1.2-0.8l-3.2-7.2h-17.1c-1,2.4-2.1,4.8-3.2,7.2c-0.2,0.4-0.6,0.8-1.2,0.8h-3.3
		C141.9,37.2,141.5,36.5,141.8,35.8z M165.5,24.7l-6.4-14.3h-0.3l-6.4,14.3H165.5z"/>
	<path fill="#FFFFFF" d="M186.6,1.5c0-0.5,0.4-1,1-1h3.5c0.5,0,1,0.5,1,1v30.8h14.2c0.6,0,1,0.5,1,1v2.9c0,0.5-0.4,1-1,1h-18.6
		c-0.6,0-1-0.5-1-1V1.5z"/>
	<circle fill="#21C7ED" cx="37.8" cy="41.3" r="2.3"/>
	<circle fill="#21C7ED" cx="32.9" cy="48.8" r="2.3"/>
	<circle fill="#21C7ED" cx="28" cy="56.3" r="2.3"/>
	<path fill="#FFFFFF" d="M40.8,59.5c0-0.5,0.4-1,1-1h20.9c0.6,0,1,0.5,1,1v2.9c0,0.5-0.4,1-1,1H46.2v12.1h14c0.5,0,1,0.5,1,1v2.9
		c0,0.5-0.5,1-1,1h-14v13.8c0,0.5-0.5,1-1,1h-3.4c-0.6,0-1-0.5-1-1V59.5z"/>
	<path fill="#FFFFFF" d="M75.7,59.5c0-0.5,0.4-1,1-1h20.9c0.6,0,1,0.5,1,1v2.9c0,0.5-0.4,1-1,1H81.1v12.1h14c0.5,0,1,0.5,1,1v2.9
		c0,0.5-0.5,1-1,1h-14v13.8c0,0.5-0.5,1-1,1h-3.4c-0.6,0-1-0.5-1-1V59.5z"/>
	<path fill="#FFFFFF" d="M108.2,89.9c0.5-0.7,0.9-1.5,1.4-2.1c0.5-0.7,1.2-0.9,1.8-0.4c0.3,0.3,4.3,3.6,8.4,3.6
		c3.6,0,5.9-2.2,5.9-4.9c0-3.1-2.7-5.1-7.9-7.3c-5.3-2.2-9.5-5-9.5-11.1c0-4.1,3.1-9.7,11.5-9.7c5.2,0,9.2,2.7,9.7,3.1
		c0.4,0.3,0.8,1,0.3,1.8c-0.4,0.6-0.9,1.4-1.3,2c-0.4,0.7-1.1,1-1.8,0.5c-0.4-0.2-4-2.6-7.1-2.6c-4.4,0-5.9,2.8-5.9,4.7
		c0,3,2.3,4.8,6.6,6.6c6.1,2.5,11.3,5.3,11.3,11.7c0,5.4-4.9,9.9-11.7,9.9c-6.4,0-10.4-3.4-11.3-4.1C108,91.1,107.7,90.7,108.2,89.9
		z"/>
	<path fill="#FFFFFF" d="M143.9,59.5c0-0.5,0.5-1,1-1h3.5c0.6,0,1,0.5,1,1v14.6h19.2V59.5c0-0.5,0.4-1,1-1h3.5c0.5,0,1,0.5,1,1v34.7
		c0,0.5-0.5,1-1,1h-3.5c-0.6,0-1-0.5-1-1V79h-19.2v15.1c0,0.5-0.4,1-1,1h-3.5c-0.5,0-1-0.5-1-1V59.5z"/>
	<path fill="#FFFFFF" d="M205.4,58c10.5,0,18.8,8.4,18.8,18.9s-8.4,18.8-18.8,18.8c-10.5,0-18.8-8.3-18.8-18.8S195,58,205.4,58z
		 M205.4,90.4c7.5,0,13.6-6.1,13.6-13.6c0-7.4-6.1-13.7-13.6-13.7c-7.4,0-13.6,6.2-13.6,13.7C191.9,84.4,198,90.4,205.4,90.4z"/>
	<path fill="#FFFFFF" d="M237,59.5c0-0.5,0.4-1,1-1h14.2c6.3,0,11.4,5,11.4,11.2c0,4.8-3.2,8.8-7.7,10.6l7.2,13.3
		c0.4,0.7,0,1.5-0.9,1.5h-4.1c-0.4,0-0.7-0.3-0.8-0.5l-7-13.9h-7.9v13.3c0,0.5-0.5,1-1,1H238c-0.6,0-1-0.5-1-1V59.5z M251.8,76.3
		c3.4,0,6.4-2.9,6.4-6.5c0-3.4-3-6.2-6.4-6.2h-9.3v12.7H251.8z"/>
	<path fill="#FFFFFF" d="M277.1,59.5c0-0.5,0.4-1,1-1H299c0.6,0,1,0.5,1,1v2.9c0,0.5-0.4,1-1,1h-16.5v10.7h14c0.5,0,1,0.5,1,1V78
		c0,0.6-0.5,1-1,1h-14v11.3H299c0.6,0,1,0.5,1,1v2.9c0,0.5-0.4,1-1,1h-20.9c-0.6,0-1-0.5-1-1V59.5z"/>
	<g>
		<path fill="#21C7ED" d="M14.5,91.3C6.5,91.3,0,84.8,0,76.8s6.5-14.5,14.5-14.5S29,68.8,29,76.8S22.5,91.3,14.5,91.3z M14.5,67.7
			c-5,0-9.1,4.1-9.1,9.1s4.1,9.1,9.1,9.1s9.1-4.1,9.1-9.1S19.5,67.7,14.5,67.7z"/>
	</g>
</g>
</svg>
