<?xml version="1.0" encoding="utf-8"?>
<!-- Generator: Adobe Illustrator 21.0.0, SVG Export Plug-In . SVG Version: 6.00 Build 0)  -->
<svg version="1.1" id="Warstwa_1" xmlns="http://www.w3.org/2000/svg" xmlns:xlink="http://www.w3.org/1999/xlink" x="0px" y="0px"
	 viewBox="0 0 479.7 250" style="enable-background:new 0 0 479.7 250;" xml:space="preserve">
<style type="text/css">
	.st0{fill:#3AA7D6;}
	.st1{fill:#8FC5E5;}
	.st2{fill:#36A6D5;}
	.st3{fill:#1B9BD1;}
	.st4{fill:#37A6D5;}
</style>
<g>
	<g>
		<g id="IwALSX.tif">
			<g>
				<g>
					<path class="st0" d="M106.6,0c10.3,6.4,20.8,12.6,31.1,19c2.9,1.7,5.8,3.5,9.9,5.9c-3.5,2.3-6.1,4.1-8.6,5.8
						c-9.9,6.1-19.6,12.1-29.6,17.9c-2.1,1.2-5.9,1.7-8,0.6c-12-6.2-23.7-12.9-35.5-19.4c-0.8-0.5-1.7-0.6-3.5-1.5
						C77.6,18,91.4,9.1,105.4,0C105.7,0,106.1,0,106.6,0z"/>
					<path class="st1" d="M0.2,83.4c0.9,0.5,1.7,0.9,2.6,1.2c-0.5,2.4-1.2,4.9-1.2,7.3c-0.2,32.3-0.2,64.6-0.3,96.9
						c-0.5,0-0.8,0-1.2-0.2C0.2,153.5,0.2,118.4,0.2,83.4z"/>
					<path class="st2" d="M1.2,188.8c0-32.3,0-64.6,0.2-96.7c0-2.4,0.8-4.9,1.2-7.3c11.8,5.9,23.8,11.8,35.6,17.7
						c1.4,0.8,2.7,1.8,3.9,2.9c-0.5,1.2-1.1,2.3-1.1,3.5c0,16.4-0.2,32.6,0,49c0,1.4,0.9,2.6,1.4,3.9c20.6,12,41.2,24.1,61.9,35.9
						c1.5,0.9,4.2,0.8,5.8,0c20.9-11.8,41.9-24,62.8-35.9c0.5-1.7,1.4-3.5,1.4-5.2c0.2-20.5,0.2-40.9,0-61.4c0-1.7-0.9-3.5-1.5-5.2
						c-15.9-9.2-31.8-18.7-49.1-28.7c3.8-2.4,6.2-4.1,8.6-5.5c10.3-6.4,20.8-12.7,31.2-18.8c1.5-0.9,4.5-1.1,6.1-0.2
						c13.8,7.7,27.4,15.8,41.1,23.5c3.2,1.8,4.5,3.8,4.5,7.6c-0.2,38.7-0.2,77.3,0,116c0,3.9-1.4,6.1-4.7,8
						c-33.1,18.7-66,37.6-99.2,56.3c-2.6,1.4-7,2.3-9.1,1.1C68.7,229.1,35,208.8,1.2,188.8z"/>
					<path class="st3" d="M173,89.8c0.5,1.7,1.5,3.5,1.5,5.2c0.2,20.5,0.2,40.9,0,61.4c0,1.7-0.9,3.5-1.4,5.2
						C173,137.7,173,113.7,173,89.8z"/>
					<path class="st3" d="M42.6,161.6c-0.5-1.4-1.4-2.6-1.4-3.9c-0.2-16.4-0.2-32.6,0-49c0-1.2,0.8-2.3,1.1-3.5
						C42.5,124,42.6,142.8,42.6,161.6z"/>
				</g>
			</g>
		</g>
	</g>
	<g>
		<path class="st4" d="M283.2,95.8V131c0,4.4,1.1,7.7,3.2,9.9c2.1,2.1,5.5,3.3,10.2,3.3c6.1,0,10.5-1.5,13.3-4.7
			c2.7-3,4.2-8.2,4.2-15.2V95.8h8.6v54.3h-7.3l-1.2-7.3h-0.6c-1.8,2.7-4.2,4.7-7.4,6.1s-6.8,2.1-10.9,2.1c-7.1,0-12.3-1.5-15.8-4.7
			c-3.5-3.2-5.3-8.2-5.3-15V95.8H283.2z"/>
		<path class="st4" d="M340.7,81.1c0-1.8,0.5-3.2,1.5-4.1c1.1-0.9,2.3-1.4,3.6-1.4s2.6,0.5,3.6,1.4c1.1,0.9,1.5,2.3,1.5,4.1
			s-0.5,3.2-1.5,4.1c-1.1,0.9-2.3,1.4-3.6,1.4c-1.5,0-2.7-0.5-3.6-1.4C341.1,84.3,340.7,82.9,340.7,81.1z M350.1,150h-8.8V95.7h8.8
			V150z"/>
		<path class="st4" d="M377.4,122.2c1.5-2,3.8-4.7,7-7.9L403,95.8h10.5l-23.5,23l25.2,31.1h-10.6l-20.5-25.6l-6.7,5.5v20.3h-8.6v-77
			h8.6v40.8c0,1.8-0.2,4.5-0.5,8.3L377.4,122.2L377.4,122.2z"/>
		<path class="st4" d="M424.8,81.1c0-1.8,0.5-3.2,1.5-4.1c1.1-0.9,2.3-1.4,3.6-1.4s2.6,0.5,3.6,1.4c1.1,0.9,1.5,2.3,1.5,4.1
			s-0.5,3.2-1.5,4.1c-1.1,0.9-2.3,1.4-3.6,1.4c-1.5,0-2.7-0.5-3.6-1.4C425.3,84.3,424.8,82.9,424.8,81.1z M434.4,150h-8.8V95.7h8.8
			V150z"/>
		<path class="st4" d="M471.7,144.2c1.5,0,3-0.2,4.5-0.3c1.5-0.2,2.6-0.5,3.5-0.6v6.2c-0.9,0.5-2.4,0.8-4.2,1.1
			c-1.8,0.3-3.5,0.5-5,0.5c-11.2,0-16.8-5.5-16.8-16.5v-32.3h-8.3v-3.9l8.3-3.5l3.6-11.5h5v12.6h16.8v6.4h-16.8V134
			c0,3.3,0.8,5.8,2.4,7.6C466.5,143.4,468.8,144.2,471.7,144.2z"/>
	</g>
</g>
</svg>
